<svg xmlns="http://www.w3.org/2000/svg" width="67" height="114" viewBox="0 0 67 114" fill="none">
  <path d="M5.82596 108.469C-0.381903 102.21 -0.381903 92.0272 5.82596 85.7686L30.9429 57.6798C31.2028 57.4177 31.2049 56.9968 30.9493 56.7304L5.63423 28.2164C-0.573634 21.9577 -0.573634 11.775 5.63423 5.51638C11.8421 -0.742277 21.9421 -0.742277 28.15 5.51638L62.3018 44.6727C68.548 50.9701 68.4713 63.3005 62.3018 69.5205L28.3439 108.466C22.0018 114.86 11.9337 114.622 5.8281 108.466L5.82596 108.469ZM7.33213 87.287C1.9551 92.7081 1.9551 101.529 7.33213 106.95C12.0764 111.733 20.8386 112.996 26.8356 106.95L60.7935 68.0042C66.1705 62.5832 66.1705 51.6144 60.7935 46.1934L26.6417 7.03702C21.2647 1.616 12.5153 1.616 7.13827 7.03702C1.76124 12.458 1.76124 21.279 7.13827 26.7L32.8474 55.6157C33.6911 56.5028 33.6825 57.9074 32.8283 58.7837L7.33213 87.287Z" fill="white"/>
</svg>