<svg width="196" height="116" viewBox="0 0 196 116" fill="none" xmlns="http://www.w3.org/2000/svg">
<g clip-path="url(#clip0_1008_205)">
<path d="M4.84872 109.469C-1.35914 103.21 -1.35914 93.0272 4.84872 86.7686L29.9657 58.6798C30.2256 58.4178 30.2277 57.9968 29.972 57.7305L4.65486 29.2185C-1.553 22.9599 -1.553 12.7772 4.65486 6.51856C10.8627 0.262044 20.9628 0.262044 27.1706 6.51856L61.3224 45.6749C67.5686 51.9722 67.4919 64.3027 61.3224 70.5227L27.3645 109.469C21.0224 115.863 10.9543 115.624 4.84872 109.469Z" fill="white"/>
<path d="M146.808 109.469C140.6 103.21 140.6 93.0272 146.808 86.7686L171.924 58.6798C172.184 58.4177 172.187 57.9968 171.931 57.7304L146.614 29.2164C140.406 22.9577 140.406 12.775 146.614 6.51638C152.822 0.257723 162.922 0.257723 169.129 6.51638L203.281 45.6727C209.527 51.9701 209.451 64.3005 203.281 70.5205L169.323 109.466C162.981 115.86 152.913 115.622 146.808 109.466V109.469Z" stroke="#00BED2" stroke-width="2" stroke-linecap="round" stroke-linejoin="round"/>
<path d="M75.826 109.469C69.6181 103.21 69.6181 93.0272 75.826 86.7686L100.943 58.6798C101.203 58.4177 101.205 57.9968 100.949 57.7304L75.6342 29.2164C69.4264 22.9577 69.4264 12.775 75.6342 6.51638C81.8421 0.257723 91.9421 0.257723 98.15 6.51638L132.302 45.6727C138.548 51.9701 138.471 64.3005 132.302 70.5205L98.3439 109.466C92.0018 115.86 81.9337 115.622 75.8281 109.466L75.826 109.469ZM77.3321 88.287C71.9551 93.7081 71.9551 102.529 77.3321 107.95C82.0764 112.733 90.8386 113.996 96.8356 107.95L130.793 69.0042C136.171 63.5832 136.171 52.6144 130.793 47.1934L96.6417 8.03702C91.2647 2.616 82.5153 2.616 77.1383 8.03702C71.7612 13.458 71.7612 22.279 77.1383 27.7L102.847 56.6157C103.691 57.5028 103.683 58.9074 102.828 59.7837L77.3321 88.287Z" fill="white"/>
</g>
<defs>
<clipPath id="clip0_1008_205">
<rect width="272" height="116" fill="white"/>
</clipPath>
</defs>
</svg>
