<svg width="80" height="97" viewBox="0 0 80 97" fill="none" xmlns="http://www.w3.org/2000/svg">
<g id="Ebene_46" clip-path="url(#clip0_1009_438)">
<g id="Ebene_2">
<g id="Illustration">
<path id="Vector" d="M12.001 5.0419C23.4132 -2.81868 38.7108 -1.25148 48.2446 8.09501L57.1024 16.7666C57.3239 16.9821 57.6761 16.9821 57.8977 16.7666L66.7555 8.09501C76.2874 -1.25337 91.5869 -2.81868 102.997 5.0419C115.763 13.8345 118.831 31.0964 109.85 43.598L79.9058 85.264C75.0471 92.0205 67.67 95.9981 59.8972 96.8431C59.8972 96.8431 58.4827 96.9981 57.5019 96.9981C56.5211 96.9981 55.1066 96.8431 55.1066 96.8431C47.3338 95.9981 39.951 92.0205 35.098 85.264L5.15035 43.5999C-3.83243 31.0945 -0.763061 13.8364 12.001 5.0419Z" fill="#00BED2"/>
</g>
</g>
</g>
<defs>
<clipPath id="clip0_1009_438">
<rect width="115" height="97" fill="white"/>
</clipPath>
</defs>
</svg>
