<svg width="70" height="56" viewBox="0 0 70 56" fill="none" xmlns="http://www.w3.org/2000/svg">
<g id="Ebene_12" clip-path="url(#clip0_1027_2436)">
<path id="Vector" d="M62.2917 33.6772C84.2657 33.6772 102.079 16.0074 102.079 -5.78936C102.079 -27.5861 84.2657 -45.2559 62.2917 -45.2559C40.3177 -45.2559 22.5043 -27.5861 22.5043 -5.78936C22.5043 16.0074 40.3177 33.6772 62.2917 33.6772Z" fill="#003D5B"/>
<path id="Vector_2" d="M62.1036 37.4905C38.1488 37.4905 18.6572 18.1588 18.6572 -5.60549C18.6572 -29.3698 38.1488 -48.6988 62.1036 -48.6988C86.0584 -48.6988 105.55 -29.3671 105.55 -5.60279C105.55 18.1615 86.0611 37.4932 62.1036 37.4932V37.4905ZM62.1036 -48.0497C38.5087 -48.0497 19.3116 -29.0074 19.3116 -5.60279C19.3116 17.8018 38.5087 36.8441 62.1036 36.8441C85.6985 36.8441 104.896 17.8018 104.896 -5.60279C104.896 -29.0074 85.6985 -48.0497 62.1036 -48.0497Z" fill="#00BED2"/>
<path id="Vector_3" d="M62.1036 52.1731C29.9857 52.1731 3.85791 26.2534 3.85791 -5.60278C3.85791 -37.4589 29.9857 -63.3814 62.1036 -63.3814C77.6608 -63.3814 92.2883 -57.372 103.29 -46.4594C114.291 -35.5468 120.349 -21.0373 120.349 -5.60548C120.349 9.82631 114.291 24.3359 103.29 35.2485C92.2883 46.1611 77.6608 52.1704 62.1036 52.1704V52.1731ZM62.1036 -51.3302C36.6846 -51.3302 16.0043 -30.8167 16.0043 -5.60278C16.0043 19.6111 36.6846 40.1247 62.1036 40.1247C87.5225 40.1247 108.203 19.6111 108.203 -5.60278C108.203 -30.8167 87.5225 -51.3329 62.1036 -51.3329V-51.3302Z" fill="#2ED8C3"/>
<path id="Vector_4" d="M62 56C45.4394 56 29.8712 49.6039 18.161 37.9881C6.45084 26.3724 0 10.927 0 -5.5C0 -21.927 6.44811 -37.3724 18.1583 -48.9881C29.8685 -60.6039 45.4394 -67 62 -67C78.5606 -67 94.1315 -60.6039 105.839 -48.9881C117.546 -37.3724 123.997 -21.9297 123.997 -5.5027C123.997 10.9243 117.549 26.3697 105.839 37.9827C94.1288 49.5985 78.5606 55.9946 62 55.9946V56ZM62 -65.7018C45.7884 -65.7018 30.5474 -59.441 19.0853 -48.0686C7.62049 -36.6989 1.30871 -21.5809 1.30871 -5.5C1.30871 10.5809 7.62049 25.6989 19.0853 37.0686C30.5474 48.4383 45.7884 54.7019 62 54.7019C78.2116 54.7019 93.4526 48.441 104.915 37.0686C116.377 25.6962 122.691 10.5809 122.691 -5.5C122.691 -21.5809 116.38 -36.6989 104.915 -48.0686C93.4526 -59.441 78.2116 -65.7018 62 -65.7018Z" fill="#FBAD18"/>
</g>
<defs>
<clipPath id="clip0_1027_2436">
<rect width="124" height="123" fill="white" transform="translate(0 -67)"/>
</clipPath>
</defs>
</svg>
