<svg width="211" height="14" viewBox="0 0 211 14" fill="none" xmlns="http://www.w3.org/2000/svg">
<g clip-path="url(#clip0_1008_351)">
<path fill-rule="evenodd" clip-rule="evenodd" d="M9.50349 4.52584C9.76109 4.74478 10.1052 4.87071 10.6381 4.87071C11.344 4.87071 11.9221 4.59559 11.9221 4.20423C11.9221 3.51256 10.0364 2.52252 6.91181 2.52252C2.50516 2.52059 0 4.41347 0 6.72679C0 9.0401 2.16105 11.024 6.9767 11.024C10.0796 11.024 11.7511 10.034 11.7511 9.53609C11.7511 9.30359 11.4305 9.15635 11.0648 9.15635C10.8072 9.15635 10.703 9.20091 10.2723 9.36365C9.92823 9.48959 9.0296 9.83639 7.68263 9.83639C5.17747 9.83639 3.07934 8.58092 3.07934 6.33155C3.07934 4.4871 4.7075 3.46219 6.67388 3.46219C8.21945 3.46219 8.88212 4.01436 9.50349 4.52391" fill="#003D62"/>
<path fill-rule="evenodd" clip-rule="evenodd" d="M26.3554 6.55243C26.1843 4.38442 23.8502 2.50897 19.591 2.50897C15.3319 2.50897 12.7225 4.39798 12.7225 6.78492C12.7225 9.57291 15.8923 11.026 19.5497 11.026C23.6595 11.026 26.55 9.13504 26.3554 6.55436M23.3389 6.57568C23.3606 7.37197 23.1895 8.25738 22.5032 8.92386C21.7108 9.67172 20.5329 9.92552 19.5733 9.92552C18.7376 9.92552 16.5353 9.6969 15.9119 7.81758C15.8038 7.49403 15.7409 7.11622 15.7409 6.65317C15.7409 6.02931 15.8274 4.39411 17.9255 3.72763C18.3955 3.57651 18.9736 3.49513 19.5301 3.49513C19.9568 3.49513 21.3293 3.52032 22.3754 4.39411C23.1915 5.09934 23.3193 5.96344 23.3409 6.57374L23.3389 6.57568Z" fill="#003D62"/>
<path fill-rule="evenodd" clip-rule="evenodd" d="M30.9979 2.91C30.762 2.72595 30.6774 2.7027 30.3136 2.7027H28.6855C28.3866 2.7027 28.2155 2.72401 28.2155 2.94294V10.6075C28.2155 10.8148 28.3433 10.84 28.6855 10.84H30.0324C30.3982 10.84 30.4611 10.7702 30.4611 10.5862V5.00826L37.8232 10.5997C38.0592 10.7838 38.1221 10.8187 38.3797 10.84H39.5772C39.8978 10.84 40.0256 10.8051 40.0256 10.6075V2.93519C40.0256 2.75113 39.939 2.69495 39.5969 2.70657H38.2499C37.9058 2.70657 37.8213 2.76276 37.8213 2.93519V8.06168L30.996 2.91" fill="#003D62"/>
<path fill-rule="evenodd" clip-rule="evenodd" d="M51.5328 4.52584C51.7865 4.74478 52.1306 4.87071 52.6635 4.87071C53.3714 4.87071 53.9475 4.59559 53.9475 4.20423C53.9475 3.51256 52.0618 2.52252 48.9372 2.52252C44.5305 2.52252 42.0273 4.41347 42.0273 6.72872C42.0273 9.04397 44.1884 11.026 49.0021 11.026C52.105 11.026 53.7725 10.0359 53.7725 9.53802C53.7725 9.30553 53.452 9.15828 53.0882 9.15828C52.8306 9.15828 52.7264 9.20284 52.2958 9.36559C51.9556 9.49152 51.053 9.83833 49.706 9.83833C47.2009 9.83833 45.1028 8.58286 45.1028 6.33348C45.1028 4.48903 46.7309 3.46412 48.6973 3.46412C50.2448 3.46412 50.9055 4.01629 51.5289 4.52584" fill="#003D62"/>
<path fill-rule="evenodd" clip-rule="evenodd" d="M63.4727 7.11623C63.8168 7.11623 63.9426 7.09492 63.9426 6.88374V6.31994C63.9426 6.12232 63.8148 6.10101 63.4943 6.10101H59.2155V3.72764H64.2887C64.6505 3.72764 64.8039 3.70632 64.7823 3.47383V2.91003C64.8039 2.6911 64.5876 2.6911 64.2887 2.6911H56.8401C56.4547 2.70273 56.3249 2.76085 56.3249 3.01465V10.5746C56.3249 10.8148 56.4743 10.84 56.8401 10.84H64.2887C64.6505 10.84 64.737 10.8051 64.7823 10.6889V10.0185C64.7823 9.7996 64.6112 9.78991 64.2887 9.78991H59.2155V7.1143H63.4727" fill="#003D62"/>
<path fill-rule="evenodd" clip-rule="evenodd" d="M70.005 2.91C69.769 2.72595 69.6844 2.7027 69.3187 2.7027H67.6905C67.3917 2.7027 67.2206 2.72401 67.2206 2.94294V10.6075C67.2206 10.8148 67.3484 10.84 67.6905 10.84H69.0375C69.3993 10.84 69.4662 10.7702 69.4662 10.5862V5.00826L76.8283 10.5997C77.0643 10.7838 77.1272 10.8187 77.3848 10.84H78.5823C78.9028 10.84 79.0346 10.8051 79.0346 10.6075V2.93519C79.0346 2.75113 78.948 2.69495 78.6059 2.70657H77.2589C76.9187 2.70657 76.8303 2.76276 76.8303 2.93519V8.06168L70.005 2.91Z" fill="#003D62"/>
<path fill-rule="evenodd" clip-rule="evenodd" d="M90.7719 3.72959C91.1573 3.72959 91.2418 3.65984 91.2418 3.47578V2.91199C91.2418 2.71437 91.0707 2.69305 90.7719 2.69305H81.3765C81.056 2.69305 80.9066 2.72793 80.9066 2.9333V3.47578C80.9066 3.65984 80.9931 3.72959 81.3765 3.72959H84.6092V10.563C84.6092 10.7916 84.7371 10.8265 85.1205 10.8381H87.0692C87.431 10.8381 87.5214 10.7567 87.5214 10.563V3.72959H90.7738" fill="#003D62"/>
<path fill-rule="evenodd" clip-rule="evenodd" d="M93.0862 10.5997C93.0862 10.8187 93.2573 10.84 93.5562 10.84H95.4184C95.8254 10.84 95.9119 10.7702 95.9119 10.5649V7.66064C95.9119 7.55796 95.9119 7.36227 96.3642 7.36227C96.7909 7.36227 97.0288 7.55602 97.133 7.66064L100.344 10.6114C100.56 10.809 100.602 10.8303 101.05 10.8439H103.211C103.361 10.8439 103.638 10.8439 103.638 10.685C103.638 10.6152 103.551 10.5339 103.469 10.4661L99.4632 7.08134C100.964 6.82754 102.804 6.17268 102.804 4.90559C102.804 4.26042 102.356 3.62687 101.412 3.21032C100.124 2.65621 98.2421 2.62134 96.9816 2.62134C95.5894 2.62134 93.92 2.70271 93.45 2.79377C93.1511 2.84996 93.0882 2.91002 93.0882 3.17545V10.6017M95.9139 3.54938C96.1302 3.53969 96.4251 3.5145 96.8774 3.5145C97.7112 3.5145 99.9155 3.5145 99.9155 5.07027C99.9155 6.14168 98.5901 6.55823 97.3021 6.63961C96.958 6.66092 96.7044 6.66092 95.91 6.64929V3.54938H95.9139Z" fill="#003D62"/>
<path fill-rule="evenodd" clip-rule="evenodd" d="M108.353 2.94489C108.353 2.73759 108.225 2.70465 107.905 2.70465H105.87C105.484 2.70465 105.441 2.78602 105.421 2.94489V10.5862C105.421 10.7935 105.592 10.8264 105.891 10.84H107.885C108.162 10.84 108.355 10.8051 108.355 10.5862V2.94489" fill="#003D62"/>
<path fill-rule="evenodd" clip-rule="evenodd" d="M118.515 10.6075C118.751 10.8148 118.814 10.84 119.202 10.84H121.255C121.404 10.84 121.662 10.84 121.662 10.6811C121.662 10.6249 121.599 10.5649 121.532 10.4835L117.316 6.37997L120.911 3.05144C120.973 2.98169 121.038 2.92357 121.038 2.85382C121.038 2.7027 120.781 2.7027 120.651 2.7027H119.176C118.791 2.7027 118.747 2.71239 118.512 2.92163L116.093 5.16713L113.741 2.92163C113.529 2.72788 113.438 2.7027 113.014 2.7027H111.086C110.959 2.7027 111.008 2.7027 111.008 2.86544C111.008 2.91 111.049 2.9565 111.116 3.02431L114.447 6.66672L110.646 10.4816C110.497 10.6075 110.451 10.654 110.451 10.7005C110.451 10.838 110.731 10.838 110.88 10.838H112.028C112.39 10.838 112.435 10.8032 112.648 10.6055L115.623 7.88731L118.515 10.6055" fill="#003D62"/>
<path d="M121.719 2.81507H121.4V2.7027H122.173V2.81507H121.852V3.73342H121.715V2.81507H121.719Z" fill="#003D62"/>
<path d="M123.172 3.28204C123.166 3.13867 123.156 2.96624 123.156 2.83643H123.152C123.117 2.95849 123.074 3.08636 123.022 3.22779L122.838 3.72959H122.735L122.566 3.23748C122.515 3.09411 122.474 2.95849 122.446 2.83643H122.442C122.438 2.9643 122.432 3.13673 122.423 3.28979L122.393 3.73153H122.263L122.336 2.70081H122.507L122.686 3.19873C122.731 3.32466 122.765 3.43897 122.79 3.54553H122.794C122.82 3.44285 122.857 3.32854 122.906 3.19873L123.093 2.70081H123.264L123.327 3.73153H123.197L123.168 3.2801L123.172 3.28204Z" fill="#003D62"/>
<path d="M140.912 4.95407H137.713V1.80185C137.713 1.05399 137.098 0.447571 136.339 0.447571C135.58 0.447571 134.964 1.05399 134.964 1.80185V4.95407H131.765C131.006 4.95407 130.39 5.5605 130.39 6.30835C130.39 7.05621 131.006 7.66263 131.765 7.66263H134.964V10.8149C134.964 11.5627 135.58 12.1691 136.339 12.1691C137.098 12.1691 137.713 11.5627 137.713 10.8149V7.66263H140.912C141.671 7.66263 142.287 7.05621 142.287 6.30835C142.287 5.5605 141.671 4.95407 140.912 4.95407Z" fill="#EF7900"/>
<path d="M162.134 0.205369L161.111 4.05895L160.089 7.91254L158.828 4.15389L157.487 0.205369H156.05L154.709 4.15389L153.576 7.89704L152.65 4.04345L151.627 0.18987H149.36L152.856 10.933H154.516L156.879 3.42928L159.353 10.933H160.997L164.352 0.187932H162.134V0.203432V0.205369ZM171.393 7.4088C171.537 5.53723 170.099 3.90202 168.184 3.77609C168.088 3.77609 167.993 3.76059 167.881 3.76059C165.885 3.71409 164.226 5.26986 164.177 7.25187V7.4088C164.192 9.43731 165.87 11.0745 167.944 11.059H168.088C169.157 11.0745 170.196 10.7606 171.073 10.1464L170.243 8.73014C169.747 9.20288 169.077 9.45281 168.391 9.43731C167.433 9.48381 166.554 8.90257 166.235 8.02104H171.376C171.391 8.00554 171.391 7.40686 171.391 7.40686L171.393 7.4088ZM167.897 5.38029C168.695 5.33379 169.366 5.91503 169.447 6.70163H166.141C166.3 5.88403 167.051 5.31829 167.897 5.38029ZM177.045 3.76059C176.231 3.74509 175.432 4.07445 174.889 4.67312V0H172.831V10.8536H174.475L174.571 9.94105C175.194 10.6482 176.087 11.057 177.045 11.057C178.991 11.0415 180.557 9.48381 180.541 7.58123V7.4088C180.637 5.49073 179.153 3.86908 177.204 3.75865H177.045V3.76059ZM176.63 9.23388C175.607 9.23388 174.777 8.41627 174.777 7.4088C174.777 6.40133 175.607 5.58372 176.63 5.58372C177.652 5.58372 178.386 6.37033 178.386 7.32937V7.4088C178.466 8.32134 177.778 9.13894 176.854 9.23388H176.63ZM186.096 3.76059C185.345 3.72959 184.611 3.98146 184.037 4.46775V0H181.978V10.8536H184.037V7.20343C183.974 6.30639 184.676 5.53529 185.569 5.48879H185.681C186.542 5.50429 187.246 6.19596 187.23 7.062C187.23 7.1085 187.23 7.15693 187.215 7.21893V10.8516H189.273V6.99806C189.386 5.31442 188.107 3.86715 186.401 3.75865C186.32 3.75865 186.21 3.74315 186.098 3.75865L186.096 3.76059ZM198.038 7.41074C198.181 5.53916 196.744 3.90396 194.828 3.77802C194.732 3.77802 194.638 3.76252 194.526 3.76252C192.53 3.71603 190.87 5.2718 190.821 7.2538V7.41074C190.837 9.43925 192.514 11.0764 194.589 11.0609H194.732C195.802 11.0764 196.84 10.7625 197.717 10.1484L196.887 8.73208C196.392 9.20481 195.721 9.45475 195.035 9.43925C194.077 9.48575 193.198 8.90451 192.88 8.02297H198.132C197.941 8.00747 198.036 7.70911 198.036 7.4088L198.038 7.41074ZM194.541 5.38223C195.34 5.33573 196.01 5.91697 196.091 6.70357H192.803C192.931 5.87047 193.698 5.2873 194.543 5.38223H194.541ZM199.475 10.9505H201.534V0.0949349H199.475V10.9485V10.9505ZM207.6 3.76252C206.69 3.73152 205.828 4.10933 205.237 4.77L205.14 3.95239H203.384V14.0039H205.443V10.2607C205.986 10.8594 206.784 11.1888 207.598 11.1733C209.498 11.1578 211.031 9.61555 210.998 7.72848C210.998 7.64904 210.998 7.58705 210.982 7.50761C211.142 5.58954 209.688 3.92139 207.742 3.76446C207.71 3.76446 207.661 3.76446 207.598 3.76446L207.6 3.76252ZM207.201 9.23581C206.212 9.28231 205.398 8.52865 205.349 7.55217V7.41074C205.286 6.4672 205.988 5.6496 206.945 5.58566H207.201C208.223 5.58566 209.053 6.40327 209.053 7.41074C209.053 8.41821 208.223 9.23581 207.201 9.23581Z" fill="#003D62"/>
</g>
<defs>
<clipPath id="clip0_1008_351">
<rect width="211" height="14" fill="white"/>
</clipPath>
</defs>
</svg>
