<svg xmlns="http://www.w3.org/2000/svg" width="54" height="60" viewBox="0 0 54 60" fill="none">
  <g clip-path="url(#clip0_1008_325)">
    <path d="M3.08172 5.39986C2.01342 8.63745 4.6285 12.6146 9.60994 16.2537C5.8863 13.0489 4.06711 9.70335 4.98855 6.90948C6.90959 1.09167 20.0229 -0.441432 34.2637 3.88554C38.1863 5.07821 41.7939 6.12532 44.9135 7.77347C41.3936 5.69568 37.1086 3.97945 32.3545 2.53556C18.1137 -1.78906 5.00513 -0.417954 3.08172 5.39986Z" fill="#003D62"/>
    <path d="M18.9309 19.0336C13.7173 16.0753 10.6901 12.279 11.512 9.17755C12.09 6.99646 14.4824 5.45866 17.9336 4.8811C13.5728 5.23092 10.2045 6.8955 9.53412 9.42407C8.66479 12.6922 11.9242 16.613 17.5546 19.6487L18.9309 19.0336Z" fill="#00B5D0"/>
    <path d="M18.4098 11.2506C19.3217 8.48494 24.5685 7.53174 32.3237 9.9617C35.8342 11.0605 38.8188 12.5983 40.7327 14.2488C38.8425 12.8683 36.2345 11.5887 33.2286 10.6778C26.4564 8.62346 20.2266 9.20102 19.3146 11.9667C18.8764 13.2956 19.7434 14.885 21.5104 16.4087C19.1441 14.6831 17.8981 12.7908 18.4074 11.2506" fill="#EF7900"/>
    <path d="M35.4126 16.7467C34.7327 18.4207 31.0849 18.0286 28.0055 16.9698C26.4043 16.418 25.0636 15.6456 24.2108 14.852C25.0565 15.5235 26.4966 16.087 27.6289 16.4485C30.7319 17.437 33.8302 17.1247 34.2827 16.1903C35.1615 14.3848 32.2929 13.2908 30.7296 12.8071C32.0087 13.0818 32.5795 13.3542 33.4773 13.7627C35.3439 14.8262 35.7418 15.9226 35.4102 16.7467" fill="#F9AE00"/>
    <path d="M53.0501 17.7986C50.3308 13.5937 44.6601 9.12353 36.4453 6.37897C29.2965 3.99362 21.0699 2.75634 15.7971 3.10146C20.8733 3.2705 26.4943 4.07579 33.392 6.21228C42.0805 8.90049 48.0545 13.5444 50.8259 17.862C50.8259 17.862 51.3494 17.8338 51.835 17.8033C52.5598 17.754 53.0477 17.8009 53.0477 17.8009" fill="#61BEAC"/>
    <path d="M33.8729 60C32.0702 60 30.315 59.3426 28.9743 58.1546C28.6498 57.8635 27.6052 56.8375 27.013 56.2529C26.4137 56.8399 25.3501 57.8752 25.0304 58.1523C22.0671 60.8029 17.4646 60.5682 14.7809 57.624C14.7501 57.5912 14.6624 57.4996 7.08722 46.8477C4.72559 43.6171 5.45279 39.0718 8.71454 36.7241C11.666 34.5993 15.6668 34.9256 18.2226 37.4988L20.0252 39.2855L21.8421 37.4941C24.7888 34.7707 28.8819 34.6181 31.8121 37.1091C32.0229 37.2805 33.2949 38.5295 34.0079 39.2362L35.8128 37.4472C37.2317 36.0831 39.0817 35.3576 41.0596 35.3858C43.0256 35.4163 44.8614 36.2052 46.2305 37.6045C48.668 40.1025 48.9877 43.9881 46.9885 46.8454V46.85C40.4745 55.9994 39.6526 57.1287 39.527 57.2953C38.2763 58.8167 36.4263 59.7957 34.4508 59.9789C34.259 59.993 34.0671 60.0023 33.8752 60.0023L33.8729 60ZM27.0177 54.5954L27.4346 55.0086C27.4536 55.0274 29.3415 56.8986 29.7678 57.2813C31.0091 58.38 32.6766 58.9364 34.349 58.8073C36.0023 58.6524 37.5562 57.8306 38.6103 56.5511C38.8496 56.2365 43.163 50.1863 46.0173 46.1715C47.692 43.7745 47.4244 40.5157 45.3802 38.4192C44.2313 37.2453 42.6916 36.5832 41.0406 36.5574C39.3825 36.5315 37.8286 37.1443 36.6443 38.283L34.0102 40.8937L33.591 40.4782C32.4824 39.3794 31.2151 38.1398 31.0517 38.0059C28.5456 35.8742 25.1796 36.0127 22.664 38.337L20.0229 40.9383L17.3817 38.3205C15.2357 36.1629 11.8839 35.8882 9.41095 37.6679C6.67743 39.6353 6.0663 43.4458 8.05129 46.1598C10.0813 49.0124 15.3494 56.4173 15.6739 56.8469C17.9289 59.2957 21.7663 59.4835 24.2439 57.2672C24.5827 56.9737 25.9305 55.6566 26.5985 55.0016L27.0177 54.5883V54.5954Z" fill="#003D62"/>
    <path d="M0 27.8165H54" stroke="#003D62" stroke-miterlimit="10"/>
  </g>
  <defs>
    <clipPath id="clip0_1008_325">
      <rect width="54" height="60" fill="white"/>
    </clipPath>
  </defs>
</svg>