<svg xmlns="http://www.w3.org/2000/svg" width="252" height="17" viewBox="0 0 252 17" fill="none">
  <g clip-path="url(#clip0_1027_2182)">
    <path fill-rule="evenodd" clip-rule="evenodd" d="M11.3501 5.49572C11.6578 5.76156 12.0688 5.91448 12.7052 5.91448C13.5483 5.91448 14.2388 5.58041 14.2388 5.10518C14.2388 4.2653 11.9866 3.06311 8.25486 3.06311C2.99195 3.06076 0 5.35927 0 8.16829C0 10.9773 2.58097 13.3864 8.33236 13.3864C12.0382 13.3864 14.0344 12.1842 14.0344 11.5796C14.0344 11.2973 13.6516 11.1185 13.2148 11.1185C12.9072 11.1185 12.7827 11.1726 12.2684 11.3702C11.8574 11.5231 10.7842 11.9442 9.17546 11.9442C6.18352 11.9442 3.6777 10.4197 3.6777 7.68835C3.6777 5.44866 5.62223 4.20413 7.9707 4.20413C9.8166 4.20413 10.608 4.87463 11.3501 5.49336" fill="white"/>
    <path fill-rule="evenodd" clip-rule="evenodd" d="M31.4765 7.95654C31.2722 5.32396 28.4846 3.04663 23.3978 3.04663C18.311 3.04663 15.1946 5.34043 15.1946 8.23885C15.1946 11.6243 18.9803 13.3887 23.3485 13.3887C28.2568 13.3887 31.709 11.0926 31.4765 7.95889M27.874 7.98477C27.8998 8.95169 27.6955 10.0268 26.8759 10.8361C25.9294 11.7443 24.5227 12.0524 23.3766 12.0524C22.3785 12.0524 19.7483 11.7748 19.0038 9.4928C18.8746 9.09991 18.7995 8.64115 18.7995 8.07888C18.7995 7.32133 18.9028 5.33573 21.4086 4.52643C21.9699 4.34292 22.6604 4.24411 23.325 4.24411C23.8346 4.24411 25.4738 4.2747 26.7232 5.33573C27.6978 6.19208 27.8505 7.24134 27.8763 7.98242L27.874 7.98477Z" fill="white"/>
    <path fill-rule="evenodd" clip-rule="evenodd" d="M37.0212 3.53359C36.7394 3.31009 36.6384 3.28186 36.2039 3.28186H34.2594C33.9024 3.28186 33.6981 3.30774 33.6981 3.57358V12.8805C33.6981 13.1323 33.8508 13.1628 34.2594 13.1628H35.8681C36.3049 13.1628 36.3801 13.0782 36.3801 12.8547V6.08147L45.1727 12.8711C45.4546 13.0946 45.5297 13.137 45.8373 13.1628H47.2676C47.6504 13.1628 47.803 13.1205 47.803 12.8805V3.56417C47.803 3.34068 47.6997 3.27245 47.291 3.28657H45.6824C45.2714 3.28657 45.1704 3.35479 45.1704 3.56417V9.7892L37.0189 3.53359" fill="white"/>
    <path fill-rule="evenodd" clip-rule="evenodd" d="M61.5463 5.49571C61.8493 5.76156 62.2603 5.91448 62.8967 5.91448C63.7422 5.91448 64.4303 5.58041 64.4303 5.10518C64.4303 4.2653 62.1781 3.06311 58.4464 3.06311C53.1834 3.06311 50.1938 5.35926 50.1938 8.17064C50.1938 10.982 52.7748 13.3887 58.5239 13.3887C62.2297 13.3887 64.2212 12.1866 64.2212 11.5819C64.2212 11.2996 63.8384 11.1208 63.404 11.1208C63.0963 11.1208 62.9719 11.1749 62.4576 11.3725C62.0513 11.5255 60.9733 11.9466 59.3646 11.9466C56.3727 11.9466 53.8669 10.4221 53.8669 7.6907C53.8669 5.45101 55.8114 4.20648 58.1598 4.20648C60.0081 4.20648 60.7972 4.87698 61.5416 5.49571" fill="white"/>
    <path fill-rule="evenodd" clip-rule="evenodd" d="M75.8062 8.6412C76.2172 8.6412 76.3675 8.61532 76.3675 8.35888V7.67427C76.3675 7.4343 76.2148 7.40842 75.832 7.40842H70.7218V4.52647H76.7808C77.2129 4.52647 77.3961 4.50059 77.3703 4.21828V3.53367C77.3961 3.26782 77.1378 3.26782 76.7808 3.26782H67.8848C67.4245 3.28194 67.2695 3.35252 67.2695 3.66071V12.8406C67.2695 13.1323 67.448 13.1629 67.8848 13.1629H76.7808C77.2129 13.1629 77.3163 13.1206 77.3703 12.9794V12.1654C77.3703 11.8996 77.166 11.8878 76.7808 11.8878H70.7218V8.63884H75.8062" fill="white"/>
    <path fill-rule="evenodd" clip-rule="evenodd" d="M83.6078 3.53359C83.326 3.31009 83.225 3.28186 82.7882 3.28186H80.8436C80.4867 3.28186 80.2823 3.30774 80.2823 3.57358V12.8805C80.2823 13.1323 80.435 13.1628 80.8436 13.1628H82.4523C82.8844 13.1628 82.9643 13.0782 82.9643 12.8547V6.08147L91.757 12.8711C92.0388 13.0946 92.1139 13.137 92.4216 13.1628H93.8518C94.2346 13.1628 94.3919 13.1205 94.3919 12.8805V3.56417C94.3919 3.34068 94.2886 3.27245 93.88 3.28657H92.2713C91.865 3.28657 91.7593 3.35479 91.7593 3.56417V9.7892L83.6078 3.53359Z" fill="white"/>
    <path fill-rule="evenodd" clip-rule="evenodd" d="M108.41 4.52879C108.87 4.52879 108.971 4.4441 108.971 4.2206V3.53599C108.971 3.29602 108.767 3.27014 108.41 3.27014H97.189C96.8062 3.27014 96.6277 3.31249 96.6277 3.56187V4.2206C96.6277 4.4441 96.731 4.52879 97.189 4.52879H101.05V12.8265C101.05 13.1041 101.202 13.1464 101.66 13.1605H103.988C104.42 13.1605 104.528 13.0617 104.528 12.8265V4.52879H108.412" fill="white"/>
    <path fill-rule="evenodd" clip-rule="evenodd" d="M111.174 12.8712C111.174 13.137 111.378 13.1629 111.735 13.1629H113.959C114.445 13.1629 114.549 13.0782 114.549 12.8288V9.30226C114.549 9.17757 114.549 8.93996 115.089 8.93996C115.599 8.93996 115.883 9.17522 116.007 9.30226L119.842 12.8853C120.101 13.1253 120.15 13.1511 120.685 13.1676H123.266C123.445 13.1676 123.776 13.1676 123.776 12.9747C123.776 12.89 123.673 12.7912 123.574 12.7088L118.79 8.59883C120.582 8.29063 122.78 7.49545 122.78 5.95684C122.78 5.17342 122.245 4.40411 121.117 3.8983C119.579 3.22545 117.332 3.18311 115.826 3.18311C114.164 3.18311 112.17 3.28192 111.609 3.39249C111.252 3.46071 111.176 3.53365 111.176 3.85595V12.8735M114.551 4.31001C114.809 4.29825 115.162 4.26766 115.702 4.26766C116.698 4.26766 119.33 4.26766 119.33 6.15681C119.33 7.45781 117.747 7.96362 116.209 8.06243C115.798 8.08831 115.495 8.08831 114.546 8.07419V4.31001H114.551Z" fill="white"/>
    <path fill-rule="evenodd" clip-rule="evenodd" d="M129.408 3.57603C129.408 3.3243 129.255 3.2843 128.872 3.2843H126.441C125.981 3.2843 125.929 3.38311 125.906 3.57603V12.8547C125.906 13.1065 126.11 13.1465 126.467 13.1629H128.849C129.18 13.1629 129.41 13.1206 129.41 12.8547V3.57603" fill="white"/>
    <path fill-rule="evenodd" clip-rule="evenodd" d="M141.545 12.8805C141.826 13.1323 141.901 13.1628 142.364 13.1628H144.816C144.994 13.1628 145.302 13.1628 145.302 12.9699C145.302 12.9017 145.227 12.8288 145.147 12.73L140.112 7.74712L144.405 3.70533C144.48 3.62064 144.558 3.55006 144.558 3.46536C144.558 3.28186 144.25 3.28186 144.095 3.28186H142.334C141.873 3.28186 141.822 3.29362 141.54 3.54771L138.651 6.27439L135.842 3.54771C135.589 3.31244 135.481 3.28186 134.973 3.28186H132.672C132.519 3.28186 132.578 3.28186 132.578 3.47948C132.578 3.53359 132.627 3.59005 132.707 3.67239L136.686 8.09531L132.146 12.7276C131.967 12.8805 131.913 12.937 131.913 12.9935C131.913 13.1605 132.247 13.1605 132.425 13.1605H133.797C134.229 13.1605 134.283 13.1181 134.537 12.8782L138.09 9.57746L141.545 12.8782" fill="white"/>
    <path d="M145.37 3.41831H144.99V3.28186H145.913V3.41831H145.53V4.53345H145.365V3.41831H145.37Z" fill="white"/>
    <path d="M147.106 3.98533C147.099 3.81123 147.087 3.60185 147.087 3.44422H147.082C147.04 3.59244 146.988 3.74771 146.927 3.91945L146.707 4.52878H146.584L146.382 3.93122C146.321 3.75712 146.272 3.59244 146.239 3.44422H146.234C146.23 3.5995 146.223 3.80888 146.211 3.99474L146.176 4.53113H146.021L146.108 3.27954H146.312L146.526 3.88416C146.58 4.03708 146.62 4.17589 146.65 4.30528H146.655C146.685 4.18059 146.73 4.04179 146.789 3.88416L147.012 3.27954H147.216L147.291 4.53113H147.136L147.101 3.98297L147.106 3.98533Z" fill="white"/>
    <path d="M168.294 6.01564H164.473V2.18794C164.473 1.27983 163.738 0.543457 162.831 0.543457C161.925 0.543457 161.189 1.27983 161.189 2.18794V6.01564H157.369C156.462 6.01564 155.727 6.75201 155.727 7.66012C155.727 8.56823 156.462 9.3046 157.369 9.3046H161.189V13.1323C161.189 14.0404 161.925 14.7768 162.831 14.7768C163.738 14.7768 164.473 14.0404 164.473 13.1323V9.3046H168.294C169.2 9.3046 169.935 8.56823 169.935 7.66012C169.935 6.75201 169.2 6.01564 168.294 6.01564Z" fill="white"/>
    <path d="M193.638 0.249377L192.417 4.92873L191.196 9.60808L189.69 5.04401L188.089 0.249377H186.372L184.77 5.04401L183.418 9.58926L182.312 4.90991L181.09 0.230556H178.383L182.558 13.2758H184.54L187.363 4.16413L190.317 13.2758H192.281L196.287 0.228204H193.638V0.247025V0.249377ZM204.697 8.9964C204.869 6.72377 203.152 4.73817 200.864 4.58525C200.749 4.58525 200.637 4.56643 200.503 4.56643C198.119 4.50996 196.137 6.39911 196.078 8.80584V8.9964C196.097 11.4596 198.1 13.4475 200.578 13.4287H200.749C202.027 13.4475 203.267 13.0664 204.314 12.3206L203.323 10.6009C202.731 11.1749 201.931 11.4784 201.111 11.4596C199.967 11.5161 198.918 10.8103 198.537 9.73983H204.676C204.695 9.72101 204.695 8.99405 204.695 8.99405L204.697 8.9964ZM200.522 6.53321C201.475 6.47675 202.276 7.18253 202.372 8.1377H198.424C198.615 7.14489 199.512 6.45793 200.522 6.53321ZM211.447 4.56643C210.474 4.54761 209.521 4.94755 208.873 5.67451V0H206.414V13.1794H208.377L208.492 12.0713C209.237 12.93 210.303 13.4264 211.447 13.4264C213.772 13.4076 215.641 11.5161 215.622 9.20578V8.9964C215.737 6.66731 213.964 4.69817 211.637 4.56407H211.447V4.56643ZM210.951 11.2126C209.73 11.2126 208.739 10.2198 208.739 8.9964C208.739 7.77304 209.73 6.78024 210.951 6.78024C212.172 6.78024 213.048 7.7354 213.048 8.89994V8.9964C213.145 10.1045 212.323 11.0973 211.219 11.2126H210.951ZM222.257 4.56643C221.36 4.52878 220.484 4.83462 219.798 5.42513V0H217.339V13.1794H219.798V8.74702C219.723 7.65776 220.561 6.72142 221.627 6.66496H221.761C222.79 6.68378 223.63 7.52366 223.612 8.57528C223.612 8.63175 223.612 8.69056 223.593 8.76584V13.177H226.052V8.49765C226.186 6.45322 224.659 4.69582 222.621 4.56407C222.524 4.56407 222.393 4.54525 222.259 4.56407L222.257 4.56643ZM236.519 8.99875C236.69 6.72613 234.974 4.74052 232.686 4.5876C232.571 4.5876 232.458 4.56878 232.325 4.56878C229.941 4.51232 227.959 6.40147 227.9 8.80819V8.99875C227.919 11.4619 229.922 13.4499 232.4 13.4311H232.571C233.849 13.4499 235.089 13.0688 236.136 12.323L235.145 10.6032C234.553 11.1773 233.752 11.4808 232.933 11.4619C231.789 11.5184 230.739 10.8126 230.359 9.74218H236.632C236.404 9.72336 236.517 9.36106 236.517 8.9964L236.519 8.99875ZM232.343 6.53557C233.297 6.4791 234.098 7.18489 234.194 8.14005H230.267C230.42 7.12842 231.336 6.42029 232.346 6.53557H232.343ZM238.236 13.297H240.694V0.115278H238.236V13.2946V13.297ZM247.939 4.56878C246.852 4.53114 245.824 4.9899 245.117 5.79214L245.002 4.79934H242.904V17.0047H245.363V12.4595C246.011 13.1864 246.965 13.5864 247.937 13.5675C250.206 13.5487 252.038 11.676 251.998 9.38458C251.998 9.28813 251.998 9.21284 251.979 9.11638C252.169 6.7873 250.434 4.76169 248.109 4.57113C248.071 4.57113 248.012 4.57113 247.937 4.57113L247.939 4.56878ZM247.463 11.2149C246.281 11.2714 245.309 10.3562 245.251 9.17049V8.99875C245.175 7.85303 246.014 6.86023 247.157 6.78259H247.463C248.684 6.78259 249.675 7.77539 249.675 8.99875C249.675 10.2221 248.684 11.2149 247.463 11.2149Z" fill="white"/>
  </g>
  <defs>
    <clipPath id="clip0_1027_2182">
      <rect width="252" height="17" fill="white"/>
    </clipPath>
  </defs>
</svg>